<?xml version="1.0" encoding="UTF-8"?>
<svg xmlns="http://www.w3.org/2000/svg" xmlns:xlink="http://www.w3.org/1999/xlink" width="18px" height="18px" viewBox="0 0 18 18" version="1.1">
<g id="surface1">
<path style=" stroke:none;fill-rule:nonzero;fill:rgb(0%,0%,0%);fill-opacity:1;" d="M 5.488281 5.078125 C 5.789062 5.003906 6.09375 5.1875 6.171875 5.488281 L 7.335938 10.152344 L 8.457031 6.039062 C 8.523438 5.796875 8.746094 5.625 9 5.625 C 9.253906 5.625 9.476562 5.796875 9.542969 6.039062 L 10.664062 10.152344 L 11.828125 5.488281 C 11.910156 5.195312 12.210938 5.019531 12.507812 5.09375 C 12.804688 5.164062 12.988281 5.464844 12.921875 5.761719 L 11.234375 12.511719 C 11.171875 12.757812 10.949219 12.933594 10.695312 12.9375 C 10.4375 12.9375 10.210938 12.769531 10.144531 12.523438 L 9 8.328125 L 7.855469 12.523438 C 7.789062 12.769531 7.5625 12.941406 7.304688 12.9375 C 7.050781 12.933594 6.828125 12.761719 6.765625 12.511719 L 5.078125 5.761719 C 5.003906 5.460938 5.1875 5.15625 5.488281 5.082031 Z M 5.488281 5.078125 "/>
<path style=" stroke:none;fill-rule:nonzero;fill:rgb(0%,0%,0%);fill-opacity:1;" d="M 4.5 0 C 3.257812 0 2.25 1.007812 2.25 2.25 L 2.25 15.75 C 2.25 16.992188 3.257812 18 4.5 18 L 13.5 18 C 14.742188 18 15.75 16.992188 15.75 15.75 L 15.75 2.25 C 15.75 1.007812 14.742188 0 13.5 0 Z M 4.5 1.125 L 13.5 1.125 C 14.121094 1.125 14.625 1.628906 14.625 2.25 L 14.625 15.75 C 14.625 16.371094 14.121094 16.875 13.5 16.875 L 4.5 16.875 C 3.878906 16.875 3.375 16.371094 3.375 15.75 L 3.375 2.25 C 3.375 1.628906 3.878906 1.125 4.5 1.125 "/>
</g>
</svg>
